<svg width="50" height="50" viewBox="0 0 50 50" fill="none" xmlns="http://www.w3.org/2000/svg">
<path fill-rule="evenodd" clip-rule="evenodd" d="M37.6384 13.457C39.3962 13.8558 40.9099 15.1318 41.2273 16.8864C41.626 18.8802 42.0248 21.6716 42.1875 25.2604C42.1062 28.768 41.7074 31.6406 41.39 33.6345C41.0686 35.4688 39.5549 36.6651 37.8011 37.0638C35.0098 37.6221 30.2246 38.0209 24.9593 38.0209C19.6941 38.0209 14.9089 37.6221 12.1175 37.0638C10.3638 36.6651 8.85008 35.389 8.52868 33.6345C8.12992 31.6406 7.8125 28.8493 7.8125 25.2604C7.8125 21.6716 8.12992 18.8802 8.45132 16.8864C8.76873 15.0521 10.2856 13.8558 12.0402 13.457C14.6728 12.8988 19.6167 12.5 24.878 12.5C30.1433 12.5 35.0098 12.8988 37.6384 13.457ZM29.9479 25.2604L20.5729 19.6777V30.8431L29.9479 25.2604Z" fill="black"/>
<mask id="mask0" mask-type="alpha" maskUnits="userSpaceOnUse" x="7" y="12" width="36" height="27">
<path fill-rule="evenodd" clip-rule="evenodd" d="M37.6384 13.457C39.3962 13.8558 40.9099 15.1318 41.2273 16.8864C41.626 18.8802 42.0248 21.6716 42.1875 25.2604C42.1062 28.768 41.7074 31.6406 41.39 33.6345C41.0686 35.4688 39.5549 36.6651 37.8011 37.0638C35.0098 37.6221 30.2246 38.0209 24.9593 38.0209C19.6941 38.0209 14.9089 37.6221 12.1175 37.0638C10.3638 36.6651 8.85008 35.389 8.52868 33.6345C8.12992 31.6406 7.8125 28.8493 7.8125 25.2604C7.8125 21.6716 8.12992 18.8802 8.45132 16.8864C8.76873 15.0521 10.2856 13.8558 12.0402 13.457C14.6728 12.8988 19.6167 12.5 24.878 12.5C30.1433 12.5 35.0098 12.8988 37.6384 13.457ZM29.9479 25.2604L20.5729 19.6777V30.8431L29.9479 25.2604Z" fill="white"/>
</mask>
<g mask="url(#mask0)">
<rect width="50" height="50" fill="#E92909"/>
</g>
</svg>
